<?xml version="1.0" encoding="utf-8"?>
<!-- Generator: Adobe Illustrator 24.0.2, SVG Export Plug-In . SVG Version: 6.00 Build 0)  -->
<svg version="1.1" id="Layer_1" xmlns="http://www.w3.org/2000/svg" xmlns:xlink="http://www.w3.org/1999/xlink" x="0px" y="0px"
	 width="140.7px" height="30.8px" viewBox="0 0 140.7 30.8" style="enable-background:new 0 0 140.7 30.8;" xml:space="preserve">
<style type="text/css">
	.st0{fill:#1A1A1D;}
</style>
<g>
	<g>
		<path class="st0" d="M33.8,6.6h5.4c3.4,0,5.8,1.1,5.8,4.7v0.1c0,1.6-0.7,3.1-2.7,3.8c2.6,0.6,3.6,2,3.6,4.3v0.1
			c0,3.4-2.3,5.1-5.9,5.1h-6.2V6.6z M39.3,14.5c2.7,0,3.7-1,3.7-3.2v-0.1c0-2.1-1.2-2.9-3.7-2.9H36v6.2H39.3z M40,23
			c2.6,0,3.8-1.2,3.8-3.4v-0.1c0-2.2-1.2-3.3-4.2-3.3H36V23H40z"/>
		<path class="st0" d="M48.5,11.4h2.1v2.4c0.8-1.5,2-2.5,4.4-2.6v2c-2.7,0.1-4.4,1-4.4,4.2v7.3h-2.1V11.4z"/>
		<path class="st0" d="M56,21c0-3.1,3.2-4.1,6.6-4.1h1.9v-1c0-2.1-0.8-3-2.8-3c-1.8,0-2.8,0.8-3,2.4h-2.1c0.3-3,2.7-4.1,5.2-4.1
			c2.5,0,4.8,1,4.8,4.7v8.7h-2.1V23c-1,1.2-2.2,1.9-4.1,1.9C57.9,24.9,56,23.7,56,21z M64.5,20v-1.6h-1.8c-2.7,0-4.6,0.7-4.6,2.6
			c0,1.4,0.7,2.2,2.5,2.2C62.8,23.2,64.5,22.1,64.5,20z"/>
		<path class="st0" d="M69.5,7.3c0-0.8,0.6-1.4,1.4-1.4c0.8,0,1.4,0.6,1.4,1.4c0,0.8-0.6,1.4-1.4,1.4C70.1,8.7,69.5,8,69.5,7.3z
			 M69.9,11.4H72v13.2h-2.1V11.4z"/>
		<path class="st0" d="M75.4,11.4h2.1v2.1c0.6-1.2,2.1-2.3,4.3-2.3c2.7,0,4.7,1.5,4.7,5.3v8.1h-2.1v-8.3c0-2.3-1-3.4-3.1-3.4
			c-1.9,0-3.7,1.2-3.7,3.6v8h-2.1V11.4z"/>
		<path class="st0" d="M90.1,21.4v-8.1h-1.9v-1.8h1.9v-3h2.1v3h3.1v1.8h-3.1v7.9c0,1.3,0.6,1.9,1.6,1.9c0.7,0,1.2-0.1,1.6-0.3v1.8
			c-0.4,0.2-0.9,0.3-1.8,0.3C91.3,24.9,90.1,23.4,90.1,21.4z"/>
		<path class="st0" d="M97.7,11.4h2.1v2.4c0.8-1.5,2-2.5,4.4-2.6v2c-2.7,0.1-4.4,1-4.4,4.2v7.3h-2.1V11.4z"/>
		<path class="st0" d="M106.2,19.8v-8.4h2.1v8.3c0,2.3,1,3.4,3.1,3.4c1.9,0,3.6-1.2,3.6-3.6v-8h2.1v13.2h-2.1v-2.1
			c-0.6,1.2-2.1,2.3-4.2,2.3C108.2,24.9,106.2,23.5,106.2,19.8z"/>
		<path class="st0" d="M119.4,20.6h2c0.2,1.6,1,2.6,3.1,2.6c2,0,2.9-0.7,2.9-2.1c0-1.4-1-1.8-3.1-2.2c-3.4-0.6-4.6-1.6-4.6-3.9
			c0-2.5,2.4-3.7,4.5-3.7c2.4,0,4.4,1,4.8,3.8h-2c-0.3-1.4-1.1-2.1-2.8-2.1c-1.5,0-2.5,0.8-2.5,1.9c0,1.2,0.7,1.7,3.1,2.1
			c2.7,0.5,4.7,1.1,4.7,3.9c0,2.4-1.6,4-4.9,4C121.5,24.9,119.6,23.3,119.4,20.6z"/>
		<path class="st0" d="M132.2,21.4v-8.1h-1.9v-1.8h1.9v-3h2.1v3h3.1v1.8h-3.1v7.9c0,1.3,0.6,1.9,1.6,1.9c0.7,0,1.2-0.1,1.6-0.3v1.8
			c-0.4,0.2-0.9,0.3-1.8,0.3C133.4,24.9,132.2,23.4,132.2,21.4z"/>
	</g>
	<g>
		<path class="st0" d="M15.6,21.3c1,0,2-0.3,3-0.8c2.8-1.6,3.8-5.3,2.2-8.1c-1.6-2.8-5.3-3.8-8.1-2.2c-1.4,0.8-2.3,2.1-2.8,3.6
			c-0.4,1.5-0.2,3.1,0.6,4.5C11.5,20.3,13.5,21.3,15.6,21.3z M11.7,14.4c0.3-1,0.9-1.9,1.9-2.4c0.6-0.4,1.3-0.5,2-0.5
			c1.4,0,2.7,0.7,3.5,2c1.1,1.9,0.4,4.4-1.5,5.5c-1.9,1.1-4.4,0.4-5.5-1.5C11.6,16.5,11.4,15.4,11.7,14.4z"/>
		<g>
			<path class="st0" d="M22.2,11.5c0.8,1.3,2,2.3,3.5,2.7c0.5,0.1,1,0.2,1.5,0.2c0.3,0,0.5,0,0.8-0.1c-0.1-0.6-0.2-1.2-0.3-1.9
				c-0.5,0.1-1,0-1.5-0.1c-1-0.3-1.8-0.9-2.4-1.8c-0.5-0.9-0.7-1.9-0.4-2.9c0.1-0.5,0.4-0.9,0.7-1.3c-0.5-0.4-0.9-0.8-1.5-1.2
				c-0.5,0.6-0.8,1.3-1,2C21.2,8.7,21.4,10.2,22.2,11.5z"/>
			<path class="st0" d="M25.7,16.6c-1.5,0.4-2.7,1.3-3.5,2.7c-0.8,1.3-1,2.9-0.6,4.4c0.2,0.8,0.6,1.4,1,2c0.5-0.4,1-0.8,1.5-1.2
				c-0.3-0.4-0.5-0.8-0.7-1.3c-0.3-1-0.1-2,0.4-2.9c0.5-0.9,1.4-1.5,2.4-1.8c0.5-0.1,1-0.2,1.5-0.1c0.1-0.6,0.2-1.2,0.3-1.9
				C27.2,16.3,26.5,16.4,25.7,16.6z"/>
			<path class="st0" d="M15.5,25c1.6,0,3,1,3.6,2.4c0.6-0.2,1.2-0.4,1.8-0.7c-0.9-2.1-2.9-3.6-5.3-3.6c-2.4,0-4.5,1.5-5.3,3.6
				c0.6,0.3,1.2,0.5,1.8,0.7C12.6,26,13.9,25,15.5,25z"/>
			<path class="st0" d="M15.5,7.7c2.4,0,4.5-1.5,5.3-3.6c-0.6-0.3-1.1-0.5-1.8-0.7c-0.6,1.4-2,2.4-3.6,2.4c-1.6,0-3-1-3.6-2.4
				c-0.6,0.2-1.2,0.4-1.8,0.7C11.1,6.2,13.1,7.7,15.5,7.7z"/>
			<path class="st0" d="M8.9,19.3c-0.8-1.3-2-2.3-3.5-2.7c-0.8-0.2-1.5-0.2-2.3-0.1c0.1,0.6,0.2,1.2,0.3,1.9c0.2,0,0.3,0,0.5,0
				c0.3,0,0.7,0,1,0.1c1,0.3,1.8,0.9,2.4,1.8c0.8,1.4,0.6,3.1-0.3,4.3c0.5,0.4,0.9,0.8,1.5,1.2C9.8,23.9,10.1,21.3,8.9,19.3z"/>
			<path class="st0" d="M5.4,14.2c1.5-0.4,2.7-1.3,3.5-2.7c0.8-1.3,1-2.9,0.6-4.4c-0.2-0.8-0.6-1.4-1-2C7.9,5.5,7.4,5.9,7,6.3
				c0.3,0.4,0.5,0.8,0.7,1.3c0.3,1,0.1,2-0.4,2.9c-0.5,0.9-1.4,1.5-2.4,1.8c-0.5,0.1-1,0.2-1.5,0.1c-0.1,0.6-0.2,1.2-0.3,1.9
				c0.3,0,0.5,0.1,0.8,0.1C4.4,14.4,4.9,14.4,5.4,14.2z"/>
		</g>
	</g>
</g>
</svg>
